<?xml version="1.0" encoding="UTF-8" standalone="no"?>
<svg
   xmlns:dc="http://purl.org/dc/elements/1.1/"
   xmlns:cc="http://creativecommons.org/ns#"
   xmlns:rdf="http://www.w3.org/1999/02/22-rdf-syntax-ns#"
   xmlns:svg="http://www.w3.org/2000/svg"
   xmlns="http://www.w3.org/2000/svg"
   xmlns:sodipodi="http://sodipodi.sourceforge.net/DTD/sodipodi-0.dtd"
   xmlns:inkscape="http://www.inkscape.org/namespaces/inkscape"
   width="69.790283mm"
   height="46.571037mm"
   viewBox="0 0 69.790283 46.571038"
   version="1.1"
   id="svg8"
   inkscape:version="1.0.2 (e86c870879, 2021-01-15, custom)"
   sodipodi:docname="logo.svg">
  <defs
     id="defs2">
    <filter
       inkscape:collect="always"
       style="color-interpolation-filters:sRGB"
       id="filter1164"
       x="-0.021434471"
       width="1.0428689"
       y="-0.047550146"
       height="1.0951003">
      <feGaussianBlur
         inkscape:collect="always"
         stdDeviation="0.21774511"
         id="feGaussianBlur1166" />
    </filter>
    <clipPath
       clipPathUnits="userSpaceOnUse"
       id="clipPath1335">
      <text
         xml:space="preserve"
         style="font-style:normal;font-weight:normal;font-size:10.5833px;line-height:1.25;font-family:sans-serif;fill:#ffffff;fill-opacity:1;stroke:none;stroke-width:0.264583"
         x="76.464096"
         y="102.4276"
         id="text1339"><tspan
           sodipodi:role="line"
           x="76.464096"
           y="102.4276"
           style="font-style:normal;font-variant:normal;font-weight:normal;font-stretch:normal;font-family:'Liberation Serif';-inkscape-font-specification:'Liberation Serif';fill:#ffffff;fill-opacity:1;stroke-width:0.264583"
           id="tspan1337">Engine</tspan></text>
    </clipPath>
  </defs>
  <sodipodi:namedview
     id="base"
     pagecolor="#ffffff"
     bordercolor="#666666"
     borderopacity="1.0"
     inkscape:pageopacity="0.0"
     inkscape:pageshadow="2"
     inkscape:zoom="0.98994949"
     inkscape:cx="268.06436"
     inkscape:cy="258.01387"
     inkscape:document-units="mm"
     inkscape:current-layer="layer1"
     inkscape:document-rotation="0"
     showgrid="false"
     inkscape:snap-others="false"
     inkscape:snap-nodes="false"
     fit-margin-top="2.1"
     fit-margin-left="2.1"
     fit-margin-right="2.1"
     fit-margin-bottom="2.1"
     lock-margins="true"
     inkscape:window-width="1916"
     inkscape:window-height="1025"
     inkscape:window-x="0"
     inkscape:window-y="53"
     inkscape:window-maximized="0" />
  <metadata
     id="metadata5">
    <rdf:RDF>
      <cc:Work
         rdf:about="">
        <dc:format>image/svg+xml</dc:format>
        <dc:type
           rdf:resource="http://purl.org/dc/dcmitype/StillImage" />
        <dc:title></dc:title>
      </cc:Work>
    </rdf:RDF>
  </metadata>
  <g
     inkscape:label="Layer 1"
     inkscape:groupmode="layer"
     id="layer1"
     transform="translate(-1.984251,-3.9910269)">
    <path
       style="fill:#e3d328;fill-opacity:1;stroke:none;stroke-width:0.335111px;stroke-linecap:butt;stroke-linejoin:miter;stroke-opacity:1"
       d="m 27.230266,19.621903 4.919535,3.561394 3.839486,1.233864 3.510703,-0.150616 2.301103,-1.3925 2.82862,-3.343033 -0.55116,-2.817245 -3.86475,1.361235 -0.17797,-3.406542 -4.462279,2.977354 -0.242394,-4.539414 -4.051861,3.294586 z"
       id="path978"
       sodipodi:nodetypes="ccccccccccccc" />
    <path
       style="fill:#006b98;fill-opacity:0.577213;stroke:none;stroke-width:0.335111px;stroke-linecap:butt;stroke-linejoin:miter;stroke-opacity:1"
       d="m 7.42241,16.354039 0.359284,-3.578879 3.433822,-1.394283 7.895007,-2.6840001 12.928938,0.677465 23.001242,1.4076231 7.9277,2.195182 3.83743,1.602693 -2.43151,4.667388 -12.8739,5.029873 -19.247619,0.470215 -16.445355,-2.829841 z"
       id="path887" />
    <path
       style="fill:#5a4027;fill-opacity:1;stroke:none;stroke-width:0.335111px;stroke-linecap:butt;stroke-linejoin:miter;stroke-opacity:1"
       d="m 5.966311,14.75045 7.871469,22.542613 1.721783,4.10948"
       id="path863"
       sodipodi:nodetypes="ccc" />
    <path
       style="fill:#5a4027;fill-opacity:1;stroke:none;stroke-width:0.335111px;stroke-linecap:butt;stroke-linejoin:miter;stroke-opacity:1"
       d="m 67.663843,15.081955 -5.33337,21.493181"
       id="path865"
       sodipodi:nodetypes="cc" />
    <path
       style="fill:#5a4027;fill-opacity:1;stroke:none;stroke-width:0.335111px;stroke-linecap:butt;stroke-linejoin:miter;stroke-opacity:1"
       d="m 5.713993,14.101375 3.972217,5.759012 8.482974,25.212566 -4.031629,-3.49967 z"
       id="path867" />
    <g
       id="g907"
       transform="matrix(1.266564,0,-1.176594,1.266564,10.063948,-82.001938)"
       style="opacity:0.268019;filter:url(#filter1164)">
      <path
         style="fill:#b2a624;fill-opacity:1;stroke:none;stroke-width:0.235326px;stroke-linecap:butt;stroke-linejoin:miter;stroke-opacity:1"
         d="m 86.587096,80.462201 1.569245,1.204395 3.50915,-0.129495 0.34494,-1.822325 -2.1625,-2.952578 -1.97502,1.118767 z"
         id="path901" />
      <path
         style="fill:#d9ca26;fill-opacity:1;stroke:none;stroke-width:0.235326px;stroke-linecap:butt;stroke-linejoin:miter;stroke-opacity:1"
         d="m 86.550564,80.431316 1.657647,1.155986 3.895,-0.522746 4.32192,-1.947506 2.55796,-2.03554 2.950769,3.243344 0.0216,3.707192 -3.143009,-1.473979 0.0529,3.608453 -4.19546,-1.120384 -0.76914,2.706318 -4.35955,-2.329342 1.41244,1.785721 -3.03428,-2.808633 z"
         id="path903" />
    </g>
    <path
       style="fill:#4f371f;fill-opacity:1;stroke:none;stroke-width:0.335111px;stroke-linecap:butt;stroke-linejoin:miter;stroke-opacity:1"
       d="m 9.339228,18.539109 10.213682,3.714154 3.129521,24.11839 -5.531776,-2.17716 -8.10968,-25.689781"
       id="path869" />
    <path
       style="fill:#5a4027;fill-opacity:1;stroke:none;stroke-width:0.335111px;stroke-linecap:butt;stroke-linejoin:miter;stroke-opacity:1"
       d="m 19.034432,22.8527 11.972388,-0.01914 0.0034,23.778693 -9.136747,-0.48574 z"
       id="path871" />
    <path
       style="fill:#4f371f;fill-opacity:1;stroke:none;stroke-width:0.335111px;stroke-linecap:butt;stroke-linejoin:miter;stroke-opacity:1"
       d="m 30.692533,23.415771 11.79219,0.408297 -0.0555,23.032565 -11.903466,0.0298 z"
       id="path873" />
    <path
       style="fill:#5a4027;fill-opacity:1;stroke:none;stroke-width:0.335111px;stroke-linecap:butt;stroke-linejoin:miter;stroke-opacity:1"
       d="m 42.044353,24.578221 10.30948,-1.611784 0.13583,21.972856 -10.94241,1.21123 z"
       id="path875" />
    <path
       style="fill:#4f371f;fill-opacity:1;stroke:none;stroke-width:0.335111px;stroke-linecap:butt;stroke-linejoin:miter;stroke-opacity:1"
       d="m 51.918283,23.541177 7.96604,-2.695997 -0.11513,22.142523 -7.32598,1.65192 z"
       id="path877" />
    <path
       style="fill:#5a4027;fill-opacity:1;stroke:none;stroke-width:0.335111px;stroke-linecap:butt;stroke-linejoin:miter;stroke-opacity:1"
       d="m 59.314133,21.638253 6.6865,-5.241634 -2.86585,23.796316 -4.05395,2.528868 z"
       id="path879" />
    <path
       style="fill:#4f371f;fill-opacity:1;stroke:none;stroke-width:0.335111px;stroke-linecap:butt;stroke-linejoin:miter;stroke-opacity:1"
       d="m 65.282523,17.713192 2.53447,-4.373871 -3.46784,26.718423 -2.00778,-0.06093 z"
       id="path881" />
    <path
       style="fill:#433e39;fill-opacity:1;stroke:none;stroke-width:0.335111px;stroke-linecap:butt;stroke-linejoin:miter;stroke-opacity:1"
       d="m 13.445245,40.653013 4.778943,3.30473 4.867341,1.51098 6.092767,0.31193 5.511562,0.24609 7.664295,-0.19433 7.72968,-1.28109 5.35024,-1.00242 3.86888,-2.19271 4.73426,-2.925158 1.22796,-0.504406 0.54659,0.670722 -0.29427,1.384906 -1.08695,1.115636 -3.84378,2.39919 -5.23761,2.20273 -8.27813,1.92162 -4.86636,0.78736 -8.925129,-0.12602 -10.622556,-0.8048 -5.099247,-1.81035 -4.580372,-3.37423 -0.617733,-1.38581 0.860536,-0.321941"
       id="path883" />
    <path
       style="fill:#433e39;fill-opacity:1;stroke:none;stroke-width:0.335111px;stroke-linecap:butt;stroke-linejoin:miter;stroke-opacity:1"
       d="m 5.924259,13.79827 4.791779,4.338041 9.399327,3.731174 10.785885,0.415988 11.214283,0.688822 7.6503,-0.414322 8.09092,-1.889085 5.14897,-3.073129 3.5327,-4.474726 0.99688,-0.638589 1.12493,0.507239 -0.7633,2.703188 -1.68071,2.883944 -5.94968,3.800754 -7.99395,2.385982 -8.27907,0.915274 -6.777089,-1.7e-5 L 29.505382,24.88264 17.99069,23.916395 10.251478,20.679866 5.400137,16.115307 5.114813,14.303726 Z"
       id="path885"
       sodipodi:nodetypes="ccccccccccccccccccccccc" />
    <path
       style="fill:#433e39;fill-opacity:1;stroke:none;stroke-width:0.335111px;stroke-linecap:butt;stroke-linejoin:miter;stroke-opacity:1"
       d="m 7.244672,16.264005 0.735838,-3.419583 10.450281,-3.8151371 15.607125,1.0138971 17.097427,0.951527 6.39284,0.853435 7.25341,2.367977 1.49736,0.897164 1.83045,-0.655442 0.5335,-1.468405 -2.32408,-1.73404 -5.0498,-1.7415221 -9.33695,-1.738257 -12.458981,-1.174871 -12.400017,-0.476469 -8.511506,0.28071 -4.993118,1.43593 -7.063555,2.3989871 -1.568164,2.509427 0.26333,2.902728 1.220544,1.087766 z"
       id="path889" />
    <path
       style="fill:#b2a624;fill-opacity:1;stroke:none;stroke-width:0.335111px;stroke-linecap:butt;stroke-linejoin:miter;stroke-opacity:1"
       d="m 25.921204,15.330732 2.365992,-1.455919 4.747449,0.875231 0.101173,1.330195 -5.482517,3.575897 -0.480333,-0.29665 z"
       id="path899"
       sodipodi:nodetypes="ccccccc" />
    <path
       style="fill:#d9ca26;fill-opacity:1;stroke:none;stroke-width:0.335111px;stroke-linecap:butt;stroke-linejoin:miter;stroke-opacity:1"
       d="m 25.865575,15.368793 2.476904,-1.3678 5.196499,1.52613 5.502815,3.694607 3.08693,3.478747 4.63735,-4.169842 0.74303,-5.421045 -4.55818,1.542911 0.76666,-5.2704191 -5.921443,0.8197841 -0.525028,-4.1108391 -6.377315,2.556963 2.264655,-2.337297 -4.667243,3.517346 z"
       id="path897" />
    <path
       style="fill:#c7efff;fill-opacity:0.545098;stroke:none;stroke-width:0.22108px;stroke-linecap:butt;stroke-linejoin:miter;stroke-opacity:1"
       d="m 59.711133,15.041624 0.49297,0.346311 h 0.64187 l 0.4968,-0.412194 -0.33149,-0.783089 -0.60678,-0.253287 -0.55697,0.271402 z"
       id="path909" />
    <path
       style="fill:#c7efff;fill-opacity:0.545098;stroke:none;stroke-width:0.335111px;stroke-linecap:butt;stroke-linejoin:miter;stroke-opacity:1"
       d="m 60.504923,16.538193 0.56159,0.720964 1.04633,0.185731 0.76452,-0.615413 -0.12916,-1.047604 -0.98912,-0.513376 -0.90287,0.451778 z"
       id="path909-6"
       sodipodi:nodetypes="cccccccc" />
    <path
       style="fill:#c7efff;fill-opacity:0.545098;stroke:none;stroke-width:0.335111px;stroke-linecap:butt;stroke-linejoin:miter;stroke-opacity:1"
       d="m 59.474323,14.273663 -0.75864,0.517048 h -0.9878 l -0.76452,-0.615413 0.51013,-1.169161 0.93379,-0.378164 0.85715,0.405207 z"
       id="path909-7" />
    <path
       style="fill:#c7efff;fill-opacity:0.545098;stroke:none;stroke-width:0.335111px;stroke-linecap:butt;stroke-linejoin:miter;stroke-opacity:1"
       d="m 15.678602,18.486293 -0.758646,0.517048 h -0.987793 l -0.764524,-0.615413 0.510134,-1.169162 0.933787,-0.378163 0.857147,0.405207 z"
       id="path909-5" />
    <path
       style="fill:#c7efff;fill-opacity:0.545098;stroke:none;stroke-width:0.248369px;stroke-linecap:butt;stroke-linejoin:miter;stroke-opacity:1"
       d="m 15.463197,13.134548 -0.433825,0.512662 -0.808298,0.13207 -0.590598,-0.437608 0.09978,-0.744928 0.764103,-0.365052 0.697471,0.32125 z"
       id="path909-6-3"
       sodipodi:nodetypes="cccccccc" />
    <path
       style="fill:#c7efff;fill-opacity:0.545098;stroke:none;stroke-width:0.335111px;stroke-linecap:butt;stroke-linejoin:miter;stroke-opacity:1"
       d="m 10.707558,16.857285 0.758646,0.517048 h 0.987794 L 13.218521,16.75892 12.708387,15.589759 11.7746,15.211596 10.917453,15.616802 Z"
       id="path909-7-5" />
    <path
       style="fill:#d9ca26;fill-opacity:1;stroke:none;stroke-width:0.335111px;stroke-linecap:butt;stroke-linejoin:miter;stroke-opacity:1"
       d="m 33.135881,6.3298079 0.162088,0.159144 -2.324704,2.280888 -0.207109,-0.138666 z"
       id="path968" />
    <path
       style="fill:#e7de78;fill-opacity:1;stroke:none;stroke-width:0.335111px;stroke-linecap:butt;stroke-linejoin:miter;stroke-opacity:1"
       d="m 26.357896,14.40068 1.63918,-1.086103 0.620891,-0.05342 c 0,0 4.870235,1.255687 4.979488,1.255687 0.109254,0 0.655345,0.569134 0.655345,0.569134 l 5.286819,3.594702 3.305554,3.421817 2.45064,-2.056931 -4.47406,-4.726258 -4.736356,-3.504186 -7.133176,-1.266249 -1.22665,0.146765 -1.627909,3.85856 z"
       id="path1168"
       sodipodi:nodetypes="cccscccccccccc" />
    <path
       style="fill:#78e7cd;fill-opacity:1;stroke:none;stroke-width:0.335111px;stroke-linecap:butt;stroke-linejoin:miter;stroke-opacity:1"
       d="m 33.628309,8.2147259 2.35869,-0.462344 0.659064,1.929657 -2.066271,0.6791121 -1.087977,-0.9272521 z"
       id="path1170" />
    <path
       style="fill:#e77878;fill-opacity:1;stroke:none;stroke-width:0.335111px;stroke-linecap:butt;stroke-linejoin:miter;stroke-opacity:1"
       d="m 39.862923,10.667677 2.34162,-0.423414 0.49061,1.359082 -0.6918,1.578641 -1.31743,0.116208 -1.11073,-0.734204 z"
       id="path1192" />
    <path
       style="fill:#7880e7;fill-opacity:1;stroke:none;stroke-width:0.335111px;stroke-linecap:butt;stroke-linejoin:miter;stroke-opacity:1"
       d="m 45.209463,14.552056 -1.07995,1.213712 0.73439,1.169744 1.25482,0.547482 0.54055,-0.0119 0.34329,-1.453496 -0.11514,-1.019254 -0.51903,-0.614302 z"
       id="path1194" />
    <path
       style="fill:#78e78c;fill-opacity:1;stroke:none;stroke-width:0.335111px;stroke-linecap:butt;stroke-linejoin:miter;stroke-opacity:1"
       d="m 30.562673,8.4522299 0.432097,-0.142581 0.787003,-0.657666 0.494671,-0.550907 -0.214613,-0.196233 -0.438977,-0.09796 -0.608409,0.287389 -0.61428,0.654935 -0.01893,0.34707 z"
       id="path1196"
       sodipodi:nodetypes="cccccccccc" />
    <g
       id="g1322"
       transform="matrix(1.266564,0,0,1.266564,-85.490182,-88.027313)">
      <rect
         style="fill:#000000;fill-opacity:1;stroke:none;stroke-width:0.170611;stroke-opacity:1"
         id="rect1198-2"
         width="30.430304"
         height="7.9772525"
         x="75.11647"
         y="96.849449"
         transform="rotate(-1.03919)" />
      <rect
         style="opacity:1;fill:#000000;fill-opacity:1;stroke:none;stroke-width:0.219942;stroke-opacity:1"
         id="rect1198"
         width="51.673805"
         height="7.8071485"
         x="72.132492"
         y="84.855469"
         transform="rotate(0.86683273)" />
      <text
         xml:space="preserve"
         style="font-style:normal;font-weight:normal;font-size:10.5833px;line-height:1.25;font-family:sans-serif;fill:#ffffff;fill-opacity:1;stroke:none;stroke-width:0.264583"
         x="72.169273"
         y="92.234406"
         id="text1202"
         transform="rotate(0.86683273)"><tspan
           sodipodi:role="line"
           id="tspan1200"
           x="72.169273"
           y="92.234406"
           style="font-style:normal;font-variant:normal;font-weight:normal;font-stretch:normal;font-family:'Liberation Serif';-inkscape-font-specification:'Liberation Serif';fill:#ffffff;fill-opacity:1;stroke-width:0.264583">Archimedes</tspan><tspan
           sodipodi:role="line"
           x="72.169273"
           y="105.46353"
           style="font-style:normal;font-variant:normal;font-weight:normal;font-stretch:normal;font-family:'Liberation Serif';-inkscape-font-specification:'Liberation Serif';fill:#ffffff;fill-opacity:1;stroke-width:0.264583"
           id="tspan1204" /></text>
      <rect
         style="fill:#ffffff;fill-opacity:1;stroke:none;stroke-width:0.174623;stroke-opacity:1"
         id="rect1198-8"
         width="31.345284"
         height="8.1128931"
         x="75.825218"
         y="94.912773"
         clip-path="url(#clipPath1335)"
         transform="rotate(-1.03919,100.0207,78.263304)" />
      <rect
         style="fill:#000000;fill-opacity:1;stroke:none;stroke-width:0.117192;stroke-opacity:1"
         id="rect1198-8-5"
         width="9.0310841"
         height="12.681748"
         x="108.40771"
         y="95.081757" />
      <text
         xml:space="preserve"
         style="font-style:normal;font-weight:normal;font-size:17.8141px;line-height:1.25;font-family:sans-serif;fill:#ffffff;fill-opacity:1;stroke:none;stroke-width:0.44535"
         x="108.58576"
         y="107.39917"
         id="text1202-5-1"><tspan
           sodipodi:role="line"
           x="108.58576"
           y="107.39917"
           style="font-style:normal;font-variant:normal;font-weight:normal;font-stretch:normal;font-family:FreeSerif;-inkscape-font-specification:FreeSerif;fill:#ffffff;fill-opacity:1;stroke-width:0.44535"
           id="tspan1204-4-8">2</tspan></text>
    </g>
  </g>
</svg>
