<?xml version="1.0" encoding="UTF-8" standalone="no"?>
<svg
   xmlns:dc="http://purl.org/dc/elements/1.1/"
   xmlns:cc="http://creativecommons.org/ns#"
   xmlns:rdf="http://www.w3.org/1999/02/22-rdf-syntax-ns#"
   xmlns:svg="http://www.w3.org/2000/svg"
   xmlns="http://www.w3.org/2000/svg"
   xmlns:sodipodi="http://sodipodi.sourceforge.net/DTD/sodipodi-0.dtd"
   xmlns:inkscape="http://www.inkscape.org/namespaces/inkscape"
   width="69.790283mm"
   height="46.571037mm"
   viewBox="0 0 69.790283 46.571038"
   version="1.1"
   id="svg8"
   inkscape:version="1.0.2 (e86c870879, 2021-01-15, custom)"
   sodipodi:docname="logo.svg">
  <defs
     id="defs2">
    <filter
       inkscape:collect="always"
       style="color-interpolation-filters:sRGB"
       id="filter1164"
       x="-0.021434471"
       width="1.0428689"
       y="-0.047550146"
       height="1.0951003">
      <feGaussianBlur
         inkscape:collect="always"
         stdDeviation="0.21774511"
         id="feGaussianBlur1166" />
    </filter>
    <clipPath
       clipPathUnits="userSpaceOnUse"
       id="clipPath1335">
      <text
         xml:space="preserve"
         style="font-style:normal;font-weight:normal;font-size:10.5833px;line-height:1.25;font-family:sans-serif;fill:#ffffff;fill-opacity:1;stroke:none;stroke-width:0.264583"
         x="76.464096"
         y="102.4276"
         id="text1339"><tspan
           sodipodi:role="line"
           x="76.464096"
           y="102.4276"
           style="font-style:normal;font-variant:normal;font-weight:normal;font-stretch:normal;font-family:'Liberation Serif';-inkscape-font-specification:'Liberation Serif';fill:#ffffff;fill-opacity:1;stroke-width:0.264583"
           id="tspan1337">Engine</tspan></text>
    </clipPath>
  </defs>
  <sodipodi:namedview
     id="base"
     pagecolor="#ffffff"
     bordercolor="#666666"
     borderopacity="1.0"
     inkscape:pageopacity="0.0"
     inkscape:pageshadow="2"
     inkscape:zoom="2.8"
     inkscape:cx="126.27727"
     inkscape:cy="115.80009"
     inkscape:document-units="mm"
     inkscape:current-layer="text1202-5-1"
     inkscape:document-rotation="0"
     showgrid="false"
     inkscape:snap-others="false"
     inkscape:snap-nodes="false"
     fit-margin-top="2.1"
     fit-margin-left="2.1"
     fit-margin-right="2.1"
     fit-margin-bottom="2.1"
     lock-margins="true"
     inkscape:window-width="1916"
     inkscape:window-height="1025"
     inkscape:window-x="0"
     inkscape:window-y="53"
     inkscape:window-maximized="0" />
  <metadata
     id="metadata5">
    <rdf:RDF>
      <cc:Work
         rdf:about="">
        <dc:format>image/svg+xml</dc:format>
        <dc:type
           rdf:resource="http://purl.org/dc/dcmitype/StillImage" />
        <dc:title />
      </cc:Work>
    </rdf:RDF>
  </metadata>
  <g
     inkscape:label="Layer 1"
     inkscape:groupmode="layer"
     id="layer1"
     transform="translate(-1.984251,-3.9910269)">
    <path
       style="fill:#e3d328;fill-opacity:1;stroke:none;stroke-width:0.335111px;stroke-linecap:butt;stroke-linejoin:miter;stroke-opacity:1"
       d="m 27.230266,19.621903 4.919535,3.561394 3.839486,1.233864 3.510703,-0.150616 2.301103,-1.3925 2.82862,-3.343033 -0.55116,-2.817245 -3.86475,1.361235 -0.17797,-3.406542 -4.462279,2.977354 -0.242394,-4.539414 -4.051861,3.294586 z"
       id="path978"
       sodipodi:nodetypes="ccccccccccccc" />
    <path
       style="fill:#006b98;fill-opacity:0.577213;stroke:none;stroke-width:0.335111px;stroke-linecap:butt;stroke-linejoin:miter;stroke-opacity:1"
       d="m 7.42241,16.354039 0.359284,-3.578879 3.433822,-1.394283 7.895007,-2.6840001 12.928938,0.677465 23.001242,1.4076231 7.9277,2.195182 3.83743,1.602693 -2.43151,4.667388 -12.8739,5.029873 -19.247619,0.470215 -16.445355,-2.829841 z"
       id="path887" />
    <path
       style="fill:#5a4027;fill-opacity:1;stroke:none;stroke-width:0.335111px;stroke-linecap:butt;stroke-linejoin:miter;stroke-opacity:1"
       d="m 5.966311,14.75045 7.871469,22.542613 1.721783,4.10948"
       id="path863"
       sodipodi:nodetypes="ccc" />
    <path
       style="fill:#5a4027;fill-opacity:1;stroke:none;stroke-width:0.335111px;stroke-linecap:butt;stroke-linejoin:miter;stroke-opacity:1"
       d="m 67.663843,15.081955 -5.33337,21.493181"
       id="path865"
       sodipodi:nodetypes="cc" />
    <path
       style="fill:#5a4027;fill-opacity:1;stroke:none;stroke-width:0.335111px;stroke-linecap:butt;stroke-linejoin:miter;stroke-opacity:1"
       d="m 5.713993,14.101375 3.972217,5.759012 8.482974,25.212566 -4.031629,-3.49967 z"
       id="path867" />
    <g
       id="g907"
       transform="matrix(1.266564,0,-1.176594,1.266564,10.063948,-82.001938)"
       style="opacity:0.268019;filter:url(#filter1164)">
      <path
         style="fill:#b2a624;fill-opacity:1;stroke:none;stroke-width:0.235326px;stroke-linecap:butt;stroke-linejoin:miter;stroke-opacity:1"
         d="m 86.587096,80.462201 1.569245,1.204395 3.50915,-0.129495 0.34494,-1.822325 -2.1625,-2.952578 -1.97502,1.118767 z"
         id="path901" />
      <path
         style="fill:#d9ca26;fill-opacity:1;stroke:none;stroke-width:0.235326px;stroke-linecap:butt;stroke-linejoin:miter;stroke-opacity:1"
         d="m 86.550564,80.431316 1.657647,1.155986 3.895,-0.522746 4.32192,-1.947506 2.55796,-2.03554 2.950769,3.243344 0.0216,3.707192 -3.143009,-1.473979 0.0529,3.608453 -4.19546,-1.120384 -0.76914,2.706318 -4.35955,-2.329342 1.41244,1.785721 -3.03428,-2.808633 z"
         id="path903" />
    </g>
    <path
       style="fill:#4f371f;fill-opacity:1;stroke:none;stroke-width:0.335111px;stroke-linecap:butt;stroke-linejoin:miter;stroke-opacity:1"
       d="m 9.339228,18.539109 10.213682,3.714154 3.129521,24.11839 -5.531776,-2.17716 -8.10968,-25.689781"
       id="path869" />
    <path
       style="fill:#5a4027;fill-opacity:1;stroke:none;stroke-width:0.335111px;stroke-linecap:butt;stroke-linejoin:miter;stroke-opacity:1"
       d="m 19.034432,22.8527 11.972388,-0.01914 0.0034,23.778693 -9.136747,-0.48574 z"
       id="path871" />
    <path
       style="fill:#4f371f;fill-opacity:1;stroke:none;stroke-width:0.335111px;stroke-linecap:butt;stroke-linejoin:miter;stroke-opacity:1"
       d="m 30.692533,23.415771 11.79219,0.408297 -0.0555,23.032565 -11.903466,0.0298 z"
       id="path873" />
    <path
       style="fill:#5a4027;fill-opacity:1;stroke:none;stroke-width:0.335111px;stroke-linecap:butt;stroke-linejoin:miter;stroke-opacity:1"
       d="m 42.044353,24.578221 10.30948,-1.611784 0.13583,21.972856 -10.94241,1.21123 z"
       id="path875" />
    <path
       style="fill:#4f371f;fill-opacity:1;stroke:none;stroke-width:0.335111px;stroke-linecap:butt;stroke-linejoin:miter;stroke-opacity:1"
       d="m 51.918283,23.541177 7.96604,-2.695997 -0.11513,22.142523 -7.32598,1.65192 z"
       id="path877" />
    <path
       style="fill:#5a4027;fill-opacity:1;stroke:none;stroke-width:0.335111px;stroke-linecap:butt;stroke-linejoin:miter;stroke-opacity:1"
       d="m 59.314133,21.638253 6.6865,-5.241634 -2.86585,23.796316 -4.05395,2.528868 z"
       id="path879" />
    <path
       style="fill:#4f371f;fill-opacity:1;stroke:none;stroke-width:0.335111px;stroke-linecap:butt;stroke-linejoin:miter;stroke-opacity:1"
       d="m 65.282523,17.713192 2.53447,-4.373871 -3.46784,26.718423 -2.00778,-0.06093 z"
       id="path881" />
    <path
       style="fill:#433e39;fill-opacity:1;stroke:none;stroke-width:0.335111px;stroke-linecap:butt;stroke-linejoin:miter;stroke-opacity:1"
       d="m 13.445245,40.653013 4.778943,3.30473 4.867341,1.51098 6.092767,0.31193 5.511562,0.24609 7.664295,-0.19433 7.72968,-1.28109 5.35024,-1.00242 3.86888,-2.19271 4.73426,-2.925158 1.22796,-0.504406 0.54659,0.670722 -0.29427,1.384906 -1.08695,1.115636 -3.84378,2.39919 -5.23761,2.20273 -8.27813,1.92162 -4.86636,0.78736 -8.925129,-0.12602 -10.622556,-0.8048 -5.099247,-1.81035 -4.580372,-3.37423 -0.617733,-1.38581 0.860536,-0.321941"
       id="path883" />
    <path
       style="fill:#433e39;fill-opacity:1;stroke:none;stroke-width:0.335111px;stroke-linecap:butt;stroke-linejoin:miter;stroke-opacity:1"
       d="m 5.924259,13.79827 4.791779,4.338041 9.399327,3.731174 10.785885,0.415988 11.214283,0.688822 7.6503,-0.414322 8.09092,-1.889085 5.14897,-3.073129 3.5327,-4.474726 0.99688,-0.638589 1.12493,0.507239 -0.7633,2.703188 -1.68071,2.883944 -5.94968,3.800754 -7.99395,2.385982 -8.27907,0.915274 -6.777089,-1.7e-5 L 29.505382,24.88264 17.99069,23.916395 10.251478,20.679866 5.400137,16.115307 5.114813,14.303726 Z"
       id="path885"
       sodipodi:nodetypes="ccccccccccccccccccccccc" />
    <path
       style="fill:#433e39;fill-opacity:1;stroke:none;stroke-width:0.335111px;stroke-linecap:butt;stroke-linejoin:miter;stroke-opacity:1"
       d="m 7.244672,16.264005 0.735838,-3.419583 10.450281,-3.8151371 15.607125,1.0138971 17.097427,0.951527 6.39284,0.853435 7.25341,2.367977 1.49736,0.897164 1.83045,-0.655442 0.5335,-1.468405 -2.32408,-1.73404 -5.0498,-1.7415221 -9.33695,-1.738257 -12.458981,-1.174871 -12.400017,-0.476469 -8.511506,0.28071 -4.993118,1.43593 -7.063555,2.3989871 -1.568164,2.509427 0.26333,2.902728 1.220544,1.087766 z"
       id="path889" />
    <path
       style="fill:#b2a624;fill-opacity:1;stroke:none;stroke-width:0.335111px;stroke-linecap:butt;stroke-linejoin:miter;stroke-opacity:1"
       d="m 25.921204,15.330732 2.365992,-1.455919 4.747449,0.875231 0.101173,1.330195 -5.482517,3.575897 -0.480333,-0.29665 z"
       id="path899"
       sodipodi:nodetypes="ccccccc" />
    <path
       style="fill:#d9ca26;fill-opacity:1;stroke:none;stroke-width:0.335111px;stroke-linecap:butt;stroke-linejoin:miter;stroke-opacity:1"
       d="m 25.865575,15.368793 2.476904,-1.3678 5.196499,1.52613 5.502815,3.694607 3.08693,3.478747 4.63735,-4.169842 0.74303,-5.421045 -4.55818,1.542911 0.76666,-5.2704191 -5.921443,0.8197841 -0.525028,-4.1108391 -6.377315,2.556963 2.264655,-2.337297 -4.667243,3.517346 z"
       id="path897" />
    <path
       style="fill:#c7efff;fill-opacity:0.545098;stroke:none;stroke-width:0.22108px;stroke-linecap:butt;stroke-linejoin:miter;stroke-opacity:1"
       d="m 59.711133,15.041624 0.49297,0.346311 h 0.64187 l 0.4968,-0.412194 -0.33149,-0.783089 -0.60678,-0.253287 -0.55697,0.271402 z"
       id="path909" />
    <path
       style="fill:#c7efff;fill-opacity:0.545098;stroke:none;stroke-width:0.335111px;stroke-linecap:butt;stroke-linejoin:miter;stroke-opacity:1"
       d="m 60.504923,16.538193 0.56159,0.720964 1.04633,0.185731 0.76452,-0.615413 -0.12916,-1.047604 -0.98912,-0.513376 -0.90287,0.451778 z"
       id="path909-6"
       sodipodi:nodetypes="cccccccc" />
    <path
       style="fill:#c7efff;fill-opacity:0.545098;stroke:none;stroke-width:0.335111px;stroke-linecap:butt;stroke-linejoin:miter;stroke-opacity:1"
       d="m 59.474323,14.273663 -0.75864,0.517048 h -0.9878 l -0.76452,-0.615413 0.51013,-1.169161 0.93379,-0.378164 0.85715,0.405207 z"
       id="path909-7" />
    <path
       style="fill:#c7efff;fill-opacity:0.545098;stroke:none;stroke-width:0.335111px;stroke-linecap:butt;stroke-linejoin:miter;stroke-opacity:1"
       d="m 15.678602,18.486293 -0.758646,0.517048 h -0.987793 l -0.764524,-0.615413 0.510134,-1.169162 0.933787,-0.378163 0.857147,0.405207 z"
       id="path909-5" />
    <path
       style="fill:#c7efff;fill-opacity:0.545098;stroke:none;stroke-width:0.248369px;stroke-linecap:butt;stroke-linejoin:miter;stroke-opacity:1"
       d="m 15.463197,13.134548 -0.433825,0.512662 -0.808298,0.13207 -0.590598,-0.437608 0.09978,-0.744928 0.764103,-0.365052 0.697471,0.32125 z"
       id="path909-6-3"
       sodipodi:nodetypes="cccccccc" />
    <path
       style="fill:#c7efff;fill-opacity:0.545098;stroke:none;stroke-width:0.335111px;stroke-linecap:butt;stroke-linejoin:miter;stroke-opacity:1"
       d="m 10.707558,16.857285 0.758646,0.517048 h 0.987794 L 13.218521,16.75892 12.708387,15.589759 11.7746,15.211596 10.917453,15.616802 Z"
       id="path909-7-5" />
    <path
       style="fill:#d9ca26;fill-opacity:1;stroke:none;stroke-width:0.335111px;stroke-linecap:butt;stroke-linejoin:miter;stroke-opacity:1"
       d="m 33.135881,6.3298079 0.162088,0.159144 -2.324704,2.280888 -0.207109,-0.138666 z"
       id="path968" />
    <path
       style="fill:#e7de78;fill-opacity:1;stroke:none;stroke-width:0.335111px;stroke-linecap:butt;stroke-linejoin:miter;stroke-opacity:1"
       d="m 26.357896,14.40068 1.63918,-1.086103 0.620891,-0.05342 c 0,0 4.870235,1.255687 4.979488,1.255687 0.109254,0 0.655345,0.569134 0.655345,0.569134 l 5.286819,3.594702 3.305554,3.421817 2.45064,-2.056931 -4.47406,-4.726258 -4.736356,-3.504186 -7.133176,-1.266249 -1.22665,0.146765 -1.627909,3.85856 z"
       id="path1168"
       sodipodi:nodetypes="cccscccccccccc" />
    <path
       style="fill:#78e7cd;fill-opacity:1;stroke:none;stroke-width:0.335111px;stroke-linecap:butt;stroke-linejoin:miter;stroke-opacity:1"
       d="m 33.628309,8.2147259 2.35869,-0.462344 0.659064,1.929657 -2.066271,0.6791121 -1.087977,-0.9272521 z"
       id="path1170" />
    <path
       style="fill:#e77878;fill-opacity:1;stroke:none;stroke-width:0.335111px;stroke-linecap:butt;stroke-linejoin:miter;stroke-opacity:1"
       d="m 39.862923,10.667677 2.34162,-0.423414 0.49061,1.359082 -0.6918,1.578641 -1.31743,0.116208 -1.11073,-0.734204 z"
       id="path1192" />
    <path
       style="fill:#7880e7;fill-opacity:1;stroke:none;stroke-width:0.335111px;stroke-linecap:butt;stroke-linejoin:miter;stroke-opacity:1"
       d="m 45.209463,14.552056 -1.07995,1.213712 0.73439,1.169744 1.25482,0.547482 0.54055,-0.0119 0.34329,-1.453496 -0.11514,-1.019254 -0.51903,-0.614302 z"
       id="path1194" />
    <path
       style="fill:#78e78c;fill-opacity:1;stroke:none;stroke-width:0.335111px;stroke-linecap:butt;stroke-linejoin:miter;stroke-opacity:1"
       d="m 30.562673,8.4522299 0.432097,-0.142581 0.787003,-0.657666 0.494671,-0.550907 -0.214613,-0.196233 -0.438977,-0.09796 -0.608409,0.287389 -0.61428,0.654935 -0.01893,0.34707 z"
       id="path1196"
       sodipodi:nodetypes="cccccccccc" />
    <g
       id="g1322"
       transform="matrix(1.266564,0,0,1.266564,-85.490182,-88.027313)">
      <rect
         style="fill:#000000;fill-opacity:1;stroke:none;stroke-width:0.170611;stroke-opacity:1"
         id="rect1198-2"
         width="30.430304"
         height="7.9772525"
         x="75.11647"
         y="96.849449"
         transform="rotate(-1.03919)" />
      <rect
         style="opacity:1;fill:#000000;fill-opacity:1;stroke:none;stroke-width:0.219942;stroke-opacity:1"
         id="rect1198"
         width="51.673805"
         height="7.8071485"
         x="72.132492"
         y="84.855469"
         transform="rotate(0.86683273)" />
      <g
         aria-label="Archimedes
"
         transform="rotate(0.86683273)"
         id="text1202"
         style="font-style:normal;font-weight:normal;font-size:10.5833px;line-height:1.25;font-family:sans-serif;fill:#ffffff;fill-opacity:1;stroke:none;stroke-width:0.264583">
        <path
           d="m 74.551549,91.960521 v 0.273885 h -2.278923 v -0.273885 l 0.785479,-0.139526 2.361606,-6.573221 h 0.981849 l 2.454622,6.573221 0.878497,0.139526 v 0.273885 h -2.930044 v -0.273885 l 0.930172,-0.139526 -0.687294,-1.999871 h -2.728507 l -0.697629,1.999871 z m 1.11104,-5.968609 -1.188554,3.364125 h 2.413282 z"
           style="font-style:normal;font-variant:normal;font-weight:normal;font-stretch:normal;font-family:'Liberation Serif';-inkscape-font-specification:'Liberation Serif';fill:#ffffff;fill-opacity:1;stroke-width:0.264583"
           id="path973" />
        <path
           d="m 83.243498,87.247646 v 1.312577 H 83.02129 l -0.299723,-0.568439 q -0.258381,0 -0.614947,0.07235 -0.351399,0.06718 -0.60978,0.180867 v 3.627674 l 0.831988,0.12919 v 0.232544 h -2.304762 v -0.232544 l 0.614948,-0.12919 V 87.73857 l -0.614948,-0.12919 v -0.232544 h 1.41593 l 0.04651,0.604613 q 0.310058,-0.258382 0.837156,-0.496092 0.532266,-0.237711 0.842323,-0.237711 z"
           style="font-style:normal;font-variant:normal;font-weight:normal;font-stretch:normal;font-family:'Liberation Serif';-inkscape-font-specification:'Liberation Serif';fill:#ffffff;fill-opacity:1;stroke-width:0.264583"
           id="path975" />
        <path
           d="m 87.708328,91.939851 q -0.253214,0.186034 -0.69763,0.294555 -0.444416,0.103352 -0.909502,0.103352 -2.361606,0 -2.361606,-2.56831 0,-1.214393 0.599445,-1.865514 0.604612,-0.656288 1.725987,-0.656288 0.69763,0 1.52445,0.160196 v 1.353918 h -0.284219 l -0.222208,-0.857826 q -0.428913,-0.242878 -1.028358,-0.242878 -1.384924,0 -1.384924,2.108392 0,1.095536 0.418578,1.56579 0.423745,0.465087 1.307409,0.465087 0.754474,0 1.312578,-0.170532 z"
           style="font-style:normal;font-variant:normal;font-weight:normal;font-stretch:normal;font-family:'Liberation Serif';-inkscape-font-specification:'Liberation Serif';fill:#ffffff;fill-opacity:1;stroke-width:0.264583"
           id="path977" />
        <path
           d="m 89.718534,86.994432 q 0,0.537433 -0.03617,0.775144 0.372069,-0.211873 0.842323,-0.366902 0.475422,-0.155028 0.800982,-0.155028 0.630451,0 0.950843,0.366901 0.320393,0.366902 0.320393,1.064531 v 3.193594 l 0.58911,0.12919 v 0.232544 h -2.092889 v -0.232544 l 0.645953,-0.12919 V 88.74109 q 0,-0.888832 -0.857826,-0.888832 -0.485757,0 -1.162716,0.149861 v 3.870553 l 0.656289,0.12919 v 0.232544 h -2.129062 v -0.232544 l 0.614947,-0.12919 V 85.247774 L 88.13724,85.123751 v -0.232543 h 1.581294 z"
           style="font-style:normal;font-variant:normal;font-weight:normal;font-stretch:normal;font-family:'Liberation Serif';-inkscape-font-specification:'Liberation Serif';fill:#ffffff;fill-opacity:1;stroke-width:0.264583"
           id="path979" />
        <path
           d="m 95.284069,85.790375 q 0,0.227376 -0.165364,0.39274 -0.165364,0.165364 -0.397907,0.165364 -0.227376,0 -0.39274,-0.165364 -0.165364,-0.165364 -0.165364,-0.39274 0,-0.232543 0.165364,-0.397907 0.165364,-0.165364 0.39274,-0.165364 0.232543,0 0.397907,0.165364 0.165364,0.165364 0.165364,0.397907 z m -0.05168,6.082297 0.831988,0.12919 v 0.232544 h -2.516634 v -0.232544 l 0.82682,-0.12919 V 87.73857 l -0.687294,-0.12919 v -0.232544 h 1.54512 z"
           style="font-style:normal;font-variant:normal;font-weight:normal;font-stretch:normal;font-family:'Liberation Serif';-inkscape-font-specification:'Liberation Serif';fill:#ffffff;fill-opacity:1;stroke-width:0.264583"
           id="path981" />
        <path
           d="m 97.950563,87.769576 q 0.387572,-0.222208 0.821653,-0.372069 0.43408,-0.149861 0.764809,-0.149861 0.356566,0 0.656285,0.134358 0.30489,0.134358 0.45475,0.428913 0.39791,-0.222208 0.93018,-0.39274 0.53743,-0.170531 0.88883,-0.170531 1.24023,0 1.24023,1.431432 v 3.193594 l 0.62528,0.12919 v 0.232544 h -2.20657 v -0.232544 l 0.72346,-0.12919 v -3.100576 q 0,-0.888832 -0.82682,-0.888832 -0.13436,0 -0.31522,0.02067 -0.1757,0.02067 -0.35657,0.04651 -0.1757,0.02584 -0.34106,0.06201 -0.1602,0.03101 -0.26872,0.05168 0.0879,0.279052 0.0879,0.614947 v 3.193594 l 0.72864,0.12919 v 0.232544 h -2.304765 v -0.232544 l 0.7183,-0.12919 v -3.100576 q 0,-0.428913 -0.222208,-0.656289 -0.21704,-0.232543 -0.656288,-0.232543 -0.454751,0 -1.131711,0.149861 v 3.839547 l 0.728636,0.12919 v 0.232544 h -2.201409 v -0.232544 l 0.614947,-0.12919 V 87.73857 l -0.614947,-0.12919 v -0.232544 h 1.421097 z"
           style="font-style:normal;font-variant:normal;font-weight:normal;font-stretch:normal;font-family:'Liberation Serif';-inkscape-font-specification:'Liberation Serif';fill:#ffffff;fill-opacity:1;stroke-width:0.264583"
           id="path983" />
        <path
           d="m 105.84153,89.790118 v 0.09302 q 0,0.713133 0.15503,1.11104 0.1602,0.39274 0.48576,0.599445 0.33072,0.206705 0.86299,0.206705 0.27905,0 0.66146,-0.04651 0.3824,-0.04651 0.63045,-0.103352 v 0.289387 q -0.24805,0.160196 -0.67696,0.279052 -0.42375,0.118855 -0.86816,0.118855 -1.13171,0 -1.65881,-0.60978 -0.52193,-0.60978 -0.52193,-1.95853 0,-1.271237 0.53226,-1.896519 0.53227,-0.625283 1.51929,-0.625283 1.86551,0 1.86551,2.118727 v 0.423745 z m 1.12138,-2.129062 q -0.53744,0 -0.82682,0.43408 -0.28422,0.434081 -0.28422,1.281572 h 2.07738 q 0,-0.925005 -0.23771,-1.317745 -0.23771,-0.397907 -0.72863,-0.397907 z"
           style="font-style:normal;font-variant:normal;font-weight:normal;font-stretch:normal;font-family:'Liberation Serif';-inkscape-font-specification:'Liberation Serif';fill:#ffffff;fill-opacity:1;stroke-width:0.264583"
           id="path985" />
        <path
           d="m 112.93151,91.872672 q -0.58394,0.465086 -1.36425,0.465086 -1.98954,0 -1.98954,-2.485628 0,-1.276404 0.56328,-1.93786 0.56327,-0.666624 1.6588,-0.666624 0.55811,0 1.13171,0.118855 -0.031,-0.170532 -0.031,-0.857826 v -1.260901 l -0.81649,-0.124023 v -0.232543 h 1.67431 v 6.981464 l 0.59945,0.12919 v 0.232544 h -1.36425 z M 110.5079,89.85213 q 0,0.981849 0.33073,1.467606 0.33072,0.480589 1.01285,0.480589 0.58394,0 1.04903,-0.201538 v -3.839546 q -0.45992,-0.08785 -1.04903,-0.08785 -1.34358,0 -1.34358,2.180739 z"
           style="font-style:normal;font-variant:normal;font-weight:normal;font-stretch:normal;font-family:'Liberation Serif';-inkscape-font-specification:'Liberation Serif';fill:#ffffff;fill-opacity:1;stroke-width:0.264583"
           id="path987" />
        <path
           d="m 115.83055,89.790118 v 0.09302 q 0,0.713133 0.15503,1.11104 0.1602,0.39274 0.48576,0.599445 0.33073,0.206705 0.86299,0.206705 0.27905,0 0.66146,-0.04651 0.3824,-0.04651 0.63045,-0.103352 v 0.289387 q -0.24805,0.160196 -0.67696,0.279052 -0.42375,0.118855 -0.86816,0.118855 -1.13171,0 -1.65881,-0.60978 -0.52193,-0.60978 -0.52193,-1.95853 0,-1.271237 0.53226,-1.896519 0.53227,-0.625283 1.51929,-0.625283 1.86551,0 1.86551,2.118727 v 0.423745 z m 1.12138,-2.129062 q -0.53744,0 -0.82682,0.43408 -0.28422,0.434081 -0.28422,1.281572 h 2.07738 q 0,-0.925005 -0.23771,-1.317745 -0.23771,-0.397907 -0.72863,-0.397907 z"
           style="font-style:normal;font-variant:normal;font-weight:normal;font-stretch:normal;font-family:'Liberation Serif';-inkscape-font-specification:'Liberation Serif';fill:#ffffff;fill-opacity:1;stroke-width:0.264583"
           id="path989" />
        <path
           d="m 122.92054,90.870152 q 0,0.723468 -0.45992,1.095537 -0.45475,0.372069 -1.34875,0.372069 -0.36174,0 -0.80099,-0.07751 -0.43408,-0.07235 -0.68212,-0.165364 v -1.193722 h 0.23254 l 0.25321,0.676959 q 0.38758,0.351399 1.00769,0.351399 1.00252,0 1.00252,-0.857827 0,-0.63045 -0.79065,-0.899167 l -0.45991,-0.149861 q -0.52193,-0.170531 -0.75965,-0.346231 -0.23771,-0.175699 -0.3669,-0.428913 -0.12919,-0.258381 -0.12919,-0.620115 0,-0.640786 0.43408,-1.007687 0.43925,-0.372069 1.18339,-0.372069 0.53226,0 1.33325,0.160196 v 1.059364 h -0.24288 l -0.21704,-0.563272 q -0.27389,-0.242878 -0.863,-0.242878 -0.41857,0 -0.64078,0.206705 -0.21704,0.206705 -0.21704,0.558104 0,0.294554 0.19637,0.496092 0.20154,0.201537 0.60461,0.335895 0.75964,0.258382 0.99218,0.377237 0.23255,0.118856 0.39274,0.294555 0.16537,0.170532 0.25322,0.39274 0.093,0.222208 0.093,0.547768 z"
           style="font-style:normal;font-variant:normal;font-weight:normal;font-stretch:normal;font-family:'Liberation Serif';-inkscape-font-specification:'Liberation Serif';fill:#ffffff;fill-opacity:1;stroke-width:0.264583"
           id="path991" />
      </g>
      <path
         id="rect1198-8"
         clip-path="url(#clipPath1335)"
         style="fill:#ffffff;fill-opacity:1;stroke:none;stroke-width:0.174623;stroke-opacity:1"
         transform="rotate(-1.03919,100.0207,78.263304)"
         d="M 75.825218,94.912773 H 107.1705 v 8.112897 H 75.825218 Z" />
      <rect
         style="fill:#000000;fill-opacity:1;stroke:none;stroke-width:0.117192;stroke-opacity:1"
         id="rect1198-8-5"
         width="9.0310841"
         height="12.681748"
         x="108.40771"
         y="95.081757" />
      <g
         aria-label="2"
         id="text1202-5-1"
         style="font-style:normal;font-weight:normal;font-size:17.8141px;line-height:1.25;font-family:sans-serif;fill:#ffffff;fill-opacity:1;stroke:none;stroke-width:0.44535">
        <path
           d="m 109.138,98.901844 0.3741,0.08907 c 0.71256,-1.745782 1.35387,-2.315833 2.58304,-2.315833 1.49638,0 2.51179,1.015403 2.51179,2.511788 0,1.3895 -0.81945,3.04621 -2.31584,4.63167 l -3.1709,3.36686 v 0.21377 h 6.94749 l 0.97978,-2.44053 -0.23158,-0.0891 c -0.65913,1.0154 -0.89071,1.17573 -1.69234,1.17573 h -4.25757 l 2.99277,-3.13528 c 1.58545,-1.65671 2.2802,-3.010586 2.2802,-4.400086 0,-1.78141 -1.44294,-3.153096 -3.29561,-3.153096 -2.86807,0 -3.50938,2.707743 -3.70533,3.545006 z"
           style="font-style:normal;font-variant:normal;font-weight:normal;font-stretch:normal;font-family:FreeSerif;-inkscape-font-specification:FreeSerif;fill:#ffffff;fill-opacity:1;stroke-width:0.44535"
           id="path995" />
      </g>
    </g>
  </g>
</svg>
